<?xml version="1.0" encoding="UTF-8" standalone="no"?>
<!DOCTYPE svg PUBLIC "-//W3C//DTD SVG 1.1//EN"
 "http://www.w3.org/Graphics/SVG/1.1/DTD/svg11.dtd">
<!-- Generated by graphviz version 2.40.1 (20161225.0304)
 -->
<!-- Title: %3 Pages: 1 -->
<svg width="953pt" height="1220pt"
 viewBox="0.00 0.00 953.36 1220.00" xmlns="http://www.w3.org/2000/svg" xmlns:xlink="http://www.w3.org/1999/xlink">
<g id="graph0" class="graph" transform="scale(.5835 .5835) rotate(0) translate(4 2087)">
<title>%3</title>
<polygon fill="#ffffff" stroke="transparent" points="-4,4 -4,-2087 1630,-2087 1630,4 -4,4"/>
<!-- 140457414817104 -->
<g id="node1" class="node">
<title>140457414817104</title>
<polygon fill="#caff70" stroke="#000000" points="1595,-21 1470,-21 1470,0 1595,0 1595,-21"/>
<text text-anchor="middle" x="1532.5" y="-7.4" font-family="Times,serif" font-size="12.00" fill="#000000">LogSoftmaxBackward</text>
</g>
<!-- 140457414818448 -->
<g id="node2" class="node">
<title>140457414818448</title>
<polygon fill="#d3d3d3" stroke="#000000" points="1578,-78 1487,-78 1487,-57 1578,-57 1578,-78"/>
<text text-anchor="middle" x="1532.5" y="-64.4" font-family="Times,serif" font-size="12.00" fill="#000000">ViewBackward</text>
</g>
<!-- 140457414818448&#45;&gt;140457414817104 -->
<g id="edge1" class="edge">
<title>140457414818448&#45;&gt;140457414817104</title>
<path fill="none" stroke="#000000" d="M1532.5,-56.7787C1532.5,-49.6134 1532.5,-39.9517 1532.5,-31.3097"/>
<polygon fill="#000000" stroke="#000000" points="1536.0001,-31.1732 1532.5,-21.1732 1529.0001,-31.1732 1536.0001,-31.1732"/>
</g>
<!-- 140457414816544 -->
<g id="node3" class="node">
<title>140457414816544</title>
<polygon fill="#d3d3d3" stroke="#000000" points="1578,-135 1487,-135 1487,-114 1578,-114 1578,-135"/>
<text text-anchor="middle" x="1532.5" y="-121.4" font-family="Times,serif" font-size="12.00" fill="#000000">ViewBackward</text>
</g>
<!-- 140457414816544&#45;&gt;140457414818448 -->
<g id="edge2" class="edge">
<title>140457414816544&#45;&gt;140457414818448</title>
<path fill="none" stroke="#000000" d="M1532.5,-113.7787C1532.5,-106.6134 1532.5,-96.9517 1532.5,-88.3097"/>
<polygon fill="#000000" stroke="#000000" points="1536.0001,-88.1732 1532.5,-78.1732 1529.0001,-88.1732 1536.0001,-88.1732"/>
</g>
<!-- 140457414815816 -->
<g id="node4" class="node">
<title>140457414815816</title>
<polygon fill="#d3d3d3" stroke="#000000" points="1581.5,-192 1483.5,-192 1483.5,-171 1581.5,-171 1581.5,-192"/>
<text text-anchor="middle" x="1532.5" y="-178.4" font-family="Times,serif" font-size="12.00" fill="#000000">MeanBackward1</text>
</g>
<!-- 140457414815816&#45;&gt;140457414816544 -->
<g id="edge3" class="edge">
<title>140457414815816&#45;&gt;140457414816544</title>
<path fill="none" stroke="#000000" d="M1532.5,-170.7787C1532.5,-163.6134 1532.5,-153.9517 1532.5,-145.3097"/>
<polygon fill="#000000" stroke="#000000" points="1536.0001,-145.1732 1532.5,-135.1732 1529.0001,-145.1732 1536.0001,-145.1732"/>
</g>
<!-- 140457414817664 -->
<g id="node5" class="node">
<title>140457414817664</title>
<polygon fill="#d3d3d3" stroke="#000000" points="1578,-249 1487,-249 1487,-228 1578,-228 1578,-249"/>
<text text-anchor="middle" x="1532.5" y="-235.4" font-family="Times,serif" font-size="12.00" fill="#000000">ViewBackward</text>
</g>
<!-- 140457414817664&#45;&gt;140457414815816 -->
<g id="edge4" class="edge">
<title>140457414817664&#45;&gt;140457414815816</title>
<path fill="none" stroke="#000000" d="M1532.5,-227.7787C1532.5,-220.6134 1532.5,-210.9517 1532.5,-202.3097"/>
<polygon fill="#000000" stroke="#000000" points="1536.0001,-202.1732 1532.5,-192.1732 1529.0001,-202.1732 1536.0001,-202.1732"/>
</g>
<!-- 140457414817328 -->
<g id="node6" class="node">
<title>140457414817328</title>
<polygon fill="#d3d3d3" stroke="#000000" points="1611,-306 1454,-306 1454,-285 1611,-285 1611,-306"/>
<text text-anchor="middle" x="1532.5" y="-292.4" font-family="Times,serif" font-size="12.00" fill="#000000">CudnnConvolutionBackward</text>
</g>
<!-- 140457414817328&#45;&gt;140457414817664 -->
<g id="edge5" class="edge">
<title>140457414817328&#45;&gt;140457414817664</title>
<path fill="none" stroke="#000000" d="M1532.5,-284.7787C1532.5,-277.6134 1532.5,-267.9517 1532.5,-259.3097"/>
<polygon fill="#000000" stroke="#000000" points="1536.0001,-259.1732 1532.5,-249.1732 1529.0001,-259.1732 1536.0001,-259.1732"/>
</g>
<!-- 140457414818224 -->
<g id="node7" class="node">
<title>140457414818224</title>
<polygon fill="#d3d3d3" stroke="#000000" points="1526.5,-370 1432.5,-370 1432.5,-349 1526.5,-349 1526.5,-370"/>
<text text-anchor="middle" x="1479.5" y="-356.4" font-family="Times,serif" font-size="12.00" fill="#000000">ReluBackward0</text>
</g>
<!-- 140457414818224&#45;&gt;140457414817328 -->
<g id="edge6" class="edge">
<title>140457414818224&#45;&gt;140457414817328</title>
<path fill="none" stroke="#000000" d="M1488.2519,-348.9317C1496.0304,-339.5388 1507.5846,-325.5865 1516.9356,-314.2947"/>
<polygon fill="#000000" stroke="#000000" points="1519.8755,-316.2322 1523.558,-306.2979 1514.4841,-311.7675 1519.8755,-316.2322"/>
</g>
<!-- 140457415149440 -->
<g id="node8" class="node">
<title>140457415149440</title>
<polygon fill="#d3d3d3" stroke="#000000" points="1556,-434 1403,-434 1403,-413 1556,-413 1556,-434"/>
<text text-anchor="middle" x="1479.5" y="-420.4" font-family="Times,serif" font-size="12.00" fill="#000000">CudnnBatchNormBackward</text>
</g>
<!-- 140457415149440&#45;&gt;140457414818224 -->
<g id="edge7" class="edge">
<title>140457415149440&#45;&gt;140457414818224</title>
<path fill="none" stroke="#000000" d="M1479.5,-412.9317C1479.5,-404.0913 1479.5,-391.2122 1479.5,-380.3135"/>
<polygon fill="#000000" stroke="#000000" points="1483.0001,-380.2979 1479.5,-370.2979 1476.0001,-380.2979 1483.0001,-380.2979"/>
</g>
<!-- 140459910563488 -->
<g id="node9" class="node">
<title>140459910563488</title>
<polygon fill="#d3d3d3" stroke="#000000" points="1434,-498 1277,-498 1277,-477 1434,-477 1434,-498"/>
<text text-anchor="middle" x="1355.5" y="-484.4" font-family="Times,serif" font-size="12.00" fill="#000000">CudnnConvolutionBackward</text>
</g>
<!-- 140459910563488&#45;&gt;140457415149440 -->
<g id="edge8" class="edge">
<title>140459910563488&#45;&gt;140457415149440</title>
<path fill="none" stroke="#000000" d="M1375.9761,-476.9317C1396.1691,-466.5095 1427.2382,-450.4738 1450.0737,-438.6878"/>
<polygon fill="#000000" stroke="#000000" points="1451.7126,-441.7807 1458.9935,-434.084 1448.502,-435.5603 1451.7126,-441.7807"/>
</g>
<!-- 140459910562032 -->
<g id="node10" class="node">
<title>140459910562032</title>
<polygon fill="#d3d3d3" stroke="#000000" points="1371.5,-569 1191.5,-569 1191.5,-548 1371.5,-548 1371.5,-569"/>
<text text-anchor="middle" x="1281.5" y="-555.4" font-family="Times,serif" font-size="12.00" fill="#000000">MaxPool2DWithIndicesBackward</text>
</g>
<!-- 140459910562032&#45;&gt;140459910563488 -->
<g id="edge9" class="edge">
<title>140459910562032&#45;&gt;140459910563488</title>
<path fill="none" stroke="#000000" d="M1292.739,-547.7166C1304.3658,-536.5612 1322.73,-518.9415 1336.5959,-505.6377"/>
<polygon fill="#000000" stroke="#000000" points="1339.3625,-507.8337 1344.1552,-498.3849 1334.5162,-502.7826 1339.3625,-507.8337"/>
</g>
<!-- 140457414786352 -->
<g id="node11" class="node">
<title>140457414786352</title>
<polygon fill="#d3d3d3" stroke="#000000" points="1328.5,-633 1234.5,-633 1234.5,-612 1328.5,-612 1328.5,-633"/>
<text text-anchor="middle" x="1281.5" y="-619.4" font-family="Times,serif" font-size="12.00" fill="#000000">ReluBackward0</text>
</g>
<!-- 140457414786352&#45;&gt;140459910562032 -->
<g id="edge10" class="edge">
<title>140457414786352&#45;&gt;140459910562032</title>
<path fill="none" stroke="#000000" d="M1281.5,-611.9317C1281.5,-603.0913 1281.5,-590.2122 1281.5,-579.3135"/>
<polygon fill="#000000" stroke="#000000" points="1285.0001,-579.2979 1281.5,-569.2979 1278.0001,-579.2979 1285.0001,-579.2979"/>
</g>
<!-- 140457414785512 -->
<g id="node12" class="node">
<title>140457414785512</title>
<polygon fill="#d3d3d3" stroke="#000000" points="1358,-690 1205,-690 1205,-669 1358,-669 1358,-690"/>
<text text-anchor="middle" x="1281.5" y="-676.4" font-family="Times,serif" font-size="12.00" fill="#000000">CudnnBatchNormBackward</text>
</g>
<!-- 140457414785512&#45;&gt;140457414786352 -->
<g id="edge11" class="edge">
<title>140457414785512&#45;&gt;140457414786352</title>
<path fill="none" stroke="#000000" d="M1281.5,-668.7787C1281.5,-661.6134 1281.5,-651.9517 1281.5,-643.3097"/>
<polygon fill="#000000" stroke="#000000" points="1285.0001,-643.1732 1281.5,-633.1732 1278.0001,-643.1732 1285.0001,-643.1732"/>
</g>
<!-- 140457414785288 -->
<g id="node13" class="node">
<title>140457414785288</title>
<polygon fill="#d3d3d3" stroke="#000000" points="1236,-754 1079,-754 1079,-733 1236,-733 1236,-754"/>
<text text-anchor="middle" x="1157.5" y="-740.4" font-family="Times,serif" font-size="12.00" fill="#000000">CudnnConvolutionBackward</text>
</g>
<!-- 140457414785288&#45;&gt;140457414785512 -->
<g id="edge12" class="edge">
<title>140457414785288&#45;&gt;140457414785512</title>
<path fill="none" stroke="#000000" d="M1177.9761,-732.9317C1198.1691,-722.5095 1229.2382,-706.4738 1252.0737,-694.6878"/>
<polygon fill="#000000" stroke="#000000" points="1253.7126,-697.7807 1260.9935,-690.084 1250.502,-691.5603 1253.7126,-697.7807"/>
</g>
<!-- 140457414783944 -->
<g id="node14" class="node">
<title>140457414783944</title>
<polygon fill="#d3d3d3" stroke="#000000" points="1151.5,-825 1057.5,-825 1057.5,-804 1151.5,-804 1151.5,-825"/>
<text text-anchor="middle" x="1104.5" y="-811.4" font-family="Times,serif" font-size="12.00" fill="#000000">ReluBackward0</text>
</g>
<!-- 140457414783944&#45;&gt;140457414785288 -->
<g id="edge13" class="edge">
<title>140457414783944&#45;&gt;140457414785288</title>
<path fill="none" stroke="#000000" d="M1112.5496,-803.7166C1120.6434,-792.874 1133.2958,-775.9244 1143.1178,-762.7667"/>
<polygon fill="#000000" stroke="#000000" points="1146.1975,-764.4921 1149.3747,-754.3849 1140.588,-760.3047 1146.1975,-764.4921"/>
</g>
<!-- 140457414784784 -->
<g id="node15" class="node">
<title>140457414784784</title>
<polygon fill="#d3d3d3" stroke="#000000" points="1181,-889 1028,-889 1028,-868 1181,-868 1181,-889"/>
<text text-anchor="middle" x="1104.5" y="-875.4" font-family="Times,serif" font-size="12.00" fill="#000000">CudnnBatchNormBackward</text>
</g>
<!-- 140457414784784&#45;&gt;140457414783944 -->
<g id="edge14" class="edge">
<title>140457414784784&#45;&gt;140457414783944</title>
<path fill="none" stroke="#000000" d="M1104.5,-867.9317C1104.5,-859.0913 1104.5,-846.2122 1104.5,-835.3135"/>
<polygon fill="#000000" stroke="#000000" points="1108.0001,-835.2979 1104.5,-825.2979 1101.0001,-835.2979 1108.0001,-835.2979"/>
</g>
<!-- 140457415351376 -->
<g id="node16" class="node">
<title>140457415351376</title>
<polygon fill="#d3d3d3" stroke="#000000" points="1059,-953 902,-953 902,-932 1059,-932 1059,-953"/>
<text text-anchor="middle" x="980.5" y="-939.4" font-family="Times,serif" font-size="12.00" fill="#000000">CudnnConvolutionBackward</text>
</g>
<!-- 140457415351376&#45;&gt;140457414784784 -->
<g id="edge15" class="edge">
<title>140457415351376&#45;&gt;140457414784784</title>
<path fill="none" stroke="#000000" d="M1000.9761,-931.9317C1021.1691,-921.5095 1052.2382,-905.4738 1075.0737,-893.6878"/>
<polygon fill="#000000" stroke="#000000" points="1076.7126,-896.7807 1083.9935,-889.084 1073.502,-890.5603 1076.7126,-896.7807"/>
</g>
<!-- 140457415349584 -->
<g id="node17" class="node">
<title>140457415349584</title>
<polygon fill="#d3d3d3" stroke="#000000" points="974.5,-1024 880.5,-1024 880.5,-1003 974.5,-1003 974.5,-1024"/>
<text text-anchor="middle" x="927.5" y="-1010.4" font-family="Times,serif" font-size="12.00" fill="#000000">ReluBackward0</text>
</g>
<!-- 140457415349584&#45;&gt;140457415351376 -->
<g id="edge16" class="edge">
<title>140457415349584&#45;&gt;140457415351376</title>
<path fill="none" stroke="#000000" d="M935.5496,-1002.7166C943.6434,-991.874 956.2958,-974.9244 966.1178,-961.7667"/>
<polygon fill="#000000" stroke="#000000" points="969.1975,-963.4921 972.3747,-953.3849 963.588,-959.3047 969.1975,-963.4921"/>
</g>
<!-- 140457415121776 -->
<g id="node18" class="node">
<title>140457415121776</title>
<polygon fill="#d3d3d3" stroke="#000000" points="1004,-1088 851,-1088 851,-1067 1004,-1067 1004,-1088"/>
<text text-anchor="middle" x="927.5" y="-1074.4" font-family="Times,serif" font-size="12.00" fill="#000000">CudnnBatchNormBackward</text>
</g>
<!-- 140457415121776&#45;&gt;140457415349584 -->
<g id="edge17" class="edge">
<title>140457415121776&#45;&gt;140457415349584</title>
<path fill="none" stroke="#000000" d="M927.5,-1066.9317C927.5,-1058.0913 927.5,-1045.2122 927.5,-1034.3135"/>
<polygon fill="#000000" stroke="#000000" points="931.0001,-1034.2979 927.5,-1024.2979 924.0001,-1034.2979 931.0001,-1034.2979"/>
</g>
<!-- 140457415119872 -->
<g id="node19" class="node">
<title>140457415119872</title>
<polygon fill="#d3d3d3" stroke="#000000" points="882,-1152 725,-1152 725,-1131 882,-1131 882,-1152"/>
<text text-anchor="middle" x="803.5" y="-1138.4" font-family="Times,serif" font-size="12.00" fill="#000000">CudnnConvolutionBackward</text>
</g>
<!-- 140457415119872&#45;&gt;140457415121776 -->
<g id="edge18" class="edge">
<title>140457415119872&#45;&gt;140457415121776</title>
<path fill="none" stroke="#000000" d="M823.9761,-1130.9317C844.1691,-1120.5095 875.2382,-1104.4738 898.0737,-1092.6878"/>
<polygon fill="#000000" stroke="#000000" points="899.7126,-1095.7807 906.9935,-1088.084 896.502,-1089.5603 899.7126,-1095.7807"/>
</g>
<!-- 140457476912632 -->
<g id="node20" class="node">
<title>140457476912632</title>
<polygon fill="#d3d3d3" stroke="#000000" points="797.5,-1223 703.5,-1223 703.5,-1202 797.5,-1202 797.5,-1223"/>
<text text-anchor="middle" x="750.5" y="-1209.4" font-family="Times,serif" font-size="12.00" fill="#000000">ReluBackward0</text>
</g>
<!-- 140457476912632&#45;&gt;140457415119872 -->
<g id="edge19" class="edge">
<title>140457476912632&#45;&gt;140457415119872</title>
<path fill="none" stroke="#000000" d="M758.5496,-1201.7166C766.6434,-1190.874 779.2958,-1173.9244 789.1178,-1160.7667"/>
<polygon fill="#000000" stroke="#000000" points="792.1975,-1162.4921 795.3747,-1152.3849 786.588,-1158.3047 792.1975,-1162.4921"/>
</g>
<!-- 140457476912968 -->
<g id="node21" class="node">
<title>140457476912968</title>
<polygon fill="#d3d3d3" stroke="#000000" points="827,-1287 674,-1287 674,-1266 827,-1266 827,-1287"/>
<text text-anchor="middle" x="750.5" y="-1273.4" font-family="Times,serif" font-size="12.00" fill="#000000">CudnnBatchNormBackward</text>
</g>
<!-- 140457476912968&#45;&gt;140457476912632 -->
<g id="edge20" class="edge">
<title>140457476912968&#45;&gt;140457476912632</title>
<path fill="none" stroke="#000000" d="M750.5,-1265.9317C750.5,-1257.0913 750.5,-1244.2122 750.5,-1233.3135"/>
<polygon fill="#000000" stroke="#000000" points="754.0001,-1233.2979 750.5,-1223.2979 747.0001,-1233.2979 754.0001,-1233.2979"/>
</g>
<!-- 140457476913024 -->
<g id="node22" class="node">
<title>140457476913024</title>
<polygon fill="#d3d3d3" stroke="#000000" points="705,-1351 548,-1351 548,-1330 705,-1330 705,-1351"/>
<text text-anchor="middle" x="626.5" y="-1337.4" font-family="Times,serif" font-size="12.00" fill="#000000">CudnnConvolutionBackward</text>
</g>
<!-- 140457476913024&#45;&gt;140457476912968 -->
<g id="edge21" class="edge">
<title>140457476913024&#45;&gt;140457476912968</title>
<path fill="none" stroke="#000000" d="M646.9761,-1329.9317C667.1691,-1319.5095 698.2382,-1303.4738 721.0737,-1291.6878"/>
<polygon fill="#000000" stroke="#000000" points="722.7126,-1294.7807 729.9935,-1287.084 719.502,-1288.5603 722.7126,-1294.7807"/>
</g>
<!-- 140457476913248 -->
<g id="node23" class="node">
<title>140457476913248</title>
<polygon fill="#d3d3d3" stroke="#000000" points="620.5,-1422 526.5,-1422 526.5,-1401 620.5,-1401 620.5,-1422"/>
<text text-anchor="middle" x="573.5" y="-1408.4" font-family="Times,serif" font-size="12.00" fill="#000000">ReluBackward0</text>
</g>
<!-- 140457476913248&#45;&gt;140457476913024 -->
<g id="edge22" class="edge">
<title>140457476913248&#45;&gt;140457476913024</title>
<path fill="none" stroke="#000000" d="M581.5496,-1400.7166C589.6434,-1389.874 602.2958,-1372.9244 612.1178,-1359.7667"/>
<polygon fill="#000000" stroke="#000000" points="615.1975,-1361.4921 618.3747,-1351.3849 609.588,-1357.3047 615.1975,-1361.4921"/>
</g>
<!-- 140457476913472 -->
<g id="node24" class="node">
<title>140457476913472</title>
<polygon fill="#d3d3d3" stroke="#000000" points="650,-1486 497,-1486 497,-1465 650,-1465 650,-1486"/>
<text text-anchor="middle" x="573.5" y="-1472.4" font-family="Times,serif" font-size="12.00" fill="#000000">CudnnBatchNormBackward</text>
</g>
<!-- 140457476913472&#45;&gt;140457476913248 -->
<g id="edge23" class="edge">
<title>140457476913472&#45;&gt;140457476913248</title>
<path fill="none" stroke="#000000" d="M573.5,-1464.9317C573.5,-1456.0913 573.5,-1443.2122 573.5,-1432.3135"/>
<polygon fill="#000000" stroke="#000000" points="577.0001,-1432.2979 573.5,-1422.2979 570.0001,-1432.2979 577.0001,-1432.2979"/>
</g>
<!-- 140457415467752 -->
<g id="node25" class="node">
<title>140457415467752</title>
<polygon fill="#d3d3d3" stroke="#000000" points="528,-1550 371,-1550 371,-1529 528,-1529 528,-1550"/>
<text text-anchor="middle" x="449.5" y="-1536.4" font-family="Times,serif" font-size="12.00" fill="#000000">CudnnConvolutionBackward</text>
</g>
<!-- 140457415467752&#45;&gt;140457476913472 -->
<g id="edge24" class="edge">
<title>140457415467752&#45;&gt;140457476913472</title>
<path fill="none" stroke="#000000" d="M469.9761,-1528.9317C490.1691,-1518.5095 521.2382,-1502.4738 544.0737,-1490.6878"/>
<polygon fill="#000000" stroke="#000000" points="545.7126,-1493.7807 552.9935,-1486.084 542.502,-1487.5603 545.7126,-1493.7807"/>
</g>
<!-- 140457415467640 -->
<g id="node26" class="node">
<title>140457415467640</title>
<polygon fill="#d3d3d3" stroke="#000000" points="466.5,-1621 286.5,-1621 286.5,-1600 466.5,-1600 466.5,-1621"/>
<text text-anchor="middle" x="376.5" y="-1607.4" font-family="Times,serif" font-size="12.00" fill="#000000">MaxPool2DWithIndicesBackward</text>
</g>
<!-- 140457415467640&#45;&gt;140457415467752 -->
<g id="edge25" class="edge">
<title>140457415467640&#45;&gt;140457415467752</title>
<path fill="none" stroke="#000000" d="M387.5871,-1599.7166C399.0568,-1588.5612 417.1728,-1570.9415 430.8514,-1557.6377"/>
<polygon fill="#000000" stroke="#000000" points="433.5802,-1559.8661 438.3085,-1550.3849 428.6996,-1554.8481 433.5802,-1559.8661"/>
</g>
<!-- 140457415468536 -->
<g id="node27" class="node">
<title>140457415468536</title>
<polygon fill="#d3d3d3" stroke="#000000" points="423.5,-1685 329.5,-1685 329.5,-1664 423.5,-1664 423.5,-1685"/>
<text text-anchor="middle" x="376.5" y="-1671.4" font-family="Times,serif" font-size="12.00" fill="#000000">ReluBackward0</text>
</g>
<!-- 140457415468536&#45;&gt;140457415467640 -->
<g id="edge26" class="edge">
<title>140457415468536&#45;&gt;140457415467640</title>
<path fill="none" stroke="#000000" d="M376.5,-1663.9317C376.5,-1655.0913 376.5,-1642.2122 376.5,-1631.3135"/>
<polygon fill="#000000" stroke="#000000" points="380.0001,-1631.2979 376.5,-1621.2979 373.0001,-1631.2979 380.0001,-1631.2979"/>
</g>
<!-- 140457415470720 -->
<g id="node28" class="node">
<title>140457415470720</title>
<polygon fill="#d3d3d3" stroke="#000000" points="453,-1742 300,-1742 300,-1721 453,-1721 453,-1742"/>
<text text-anchor="middle" x="376.5" y="-1728.4" font-family="Times,serif" font-size="12.00" fill="#000000">CudnnBatchNormBackward</text>
</g>
<!-- 140457415470720&#45;&gt;140457415468536 -->
<g id="edge27" class="edge">
<title>140457415470720&#45;&gt;140457415468536</title>
<path fill="none" stroke="#000000" d="M376.5,-1720.7787C376.5,-1713.6134 376.5,-1703.9517 376.5,-1695.3097"/>
<polygon fill="#000000" stroke="#000000" points="380.0001,-1695.1732 376.5,-1685.1732 373.0001,-1695.1732 380.0001,-1695.1732"/>
</g>
<!-- 140457415468256 -->
<g id="node29" class="node">
<title>140457415468256</title>
<polygon fill="#d3d3d3" stroke="#000000" points="331,-1806 174,-1806 174,-1785 331,-1785 331,-1806"/>
<text text-anchor="middle" x="252.5" y="-1792.4" font-family="Times,serif" font-size="12.00" fill="#000000">CudnnConvolutionBackward</text>
</g>
<!-- 140457415468256&#45;&gt;140457415470720 -->
<g id="edge28" class="edge">
<title>140457415468256&#45;&gt;140457415470720</title>
<path fill="none" stroke="#000000" d="M272.9761,-1784.9317C293.1691,-1774.5095 324.2382,-1758.4738 347.0737,-1746.6878"/>
<polygon fill="#000000" stroke="#000000" points="348.7126,-1749.7807 355.9935,-1742.084 345.502,-1743.5603 348.7126,-1749.7807"/>
</g>
<!-- 140457415468088 -->
<g id="node30" class="node">
<title>140457415468088</title>
<polygon fill="#d3d3d3" stroke="#000000" points="249.5,-1877 155.5,-1877 155.5,-1856 249.5,-1856 249.5,-1877"/>
<text text-anchor="middle" x="202.5" y="-1863.4" font-family="Times,serif" font-size="12.00" fill="#000000">ReluBackward0</text>
</g>
<!-- 140457415468088&#45;&gt;140457415468256 -->
<g id="edge29" class="edge">
<title>140457415468088&#45;&gt;140457415468256</title>
<path fill="none" stroke="#000000" d="M210.0939,-1855.7166C217.7296,-1844.874 229.6659,-1827.9244 238.9319,-1814.7667"/>
<polygon fill="#000000" stroke="#000000" points="241.9384,-1816.5762 244.8346,-1806.3849 236.2152,-1812.5457 241.9384,-1816.5762"/>
</g>
<!-- 140457415469208 -->
<g id="node31" class="node">
<title>140457415469208</title>
<polygon fill="#d3d3d3" stroke="#000000" points="279,-1941 126,-1941 126,-1920 279,-1920 279,-1941"/>
<text text-anchor="middle" x="202.5" y="-1927.4" font-family="Times,serif" font-size="12.00" fill="#000000">CudnnBatchNormBackward</text>
</g>
<!-- 140457415469208&#45;&gt;140457415468088 -->
<g id="edge30" class="edge">
<title>140457415469208&#45;&gt;140457415468088</title>
<path fill="none" stroke="#000000" d="M202.5,-1919.9317C202.5,-1911.0913 202.5,-1898.2122 202.5,-1887.3135"/>
<polygon fill="#000000" stroke="#000000" points="206.0001,-1887.2979 202.5,-1877.2979 199.0001,-1887.2979 206.0001,-1887.2979"/>
</g>
<!-- 140457415467360 -->
<g id="node32" class="node">
<title>140457415467360</title>
<polygon fill="#d3d3d3" stroke="#000000" points="157,-2005 0,-2005 0,-1984 157,-1984 157,-2005"/>
<text text-anchor="middle" x="78.5" y="-1991.4" font-family="Times,serif" font-size="12.00" fill="#000000">CudnnConvolutionBackward</text>
</g>
<!-- 140457415467360&#45;&gt;140457415469208 -->
<g id="edge31" class="edge">
<title>140457415467360&#45;&gt;140457415469208</title>
<path fill="none" stroke="#000000" d="M98.9761,-1983.9317C119.1691,-1973.5095 150.2382,-1957.4738 173.0737,-1945.6878"/>
<polygon fill="#000000" stroke="#000000" points="174.7126,-1948.7807 181.9935,-1941.084 171.502,-1942.5603 174.7126,-1948.7807"/>
</g>
<!-- 140457415467864 -->
<g id="node33" class="node">
<title>140457415467864</title>
<polygon fill="#add8e6" stroke="#000000" points="113,-2083 44,-2083 44,-2048 113,-2048 113,-2083"/>
<text text-anchor="middle" x="78.5" y="-2055.4" font-family="Times,serif" font-size="12.00" fill="#000000"> (8, 1, 3, 3)</text>
</g>
<!-- 140457415467864&#45;&gt;140457415467360 -->
<g id="edge32" class="edge">
<title>140457415467864&#45;&gt;140457415467360</title>
<path fill="none" stroke="#000000" d="M78.5,-2047.9494C78.5,-2038.058 78.5,-2025.6435 78.5,-2015.2693"/>
<polygon fill="#000000" stroke="#000000" points="82.0001,-2015.0288 78.5,-2005.0288 75.0001,-2015.0289 82.0001,-2015.0288"/>
</g>
<!-- 140457415468816 -->
<g id="node34" class="node">
<title>140457415468816</title>
<polygon fill="#add8e6" stroke="#000000" points="229.5,-2012 175.5,-2012 175.5,-1977 229.5,-1977 229.5,-2012"/>
<text text-anchor="middle" x="202.5" y="-1984.4" font-family="Times,serif" font-size="12.00" fill="#000000"> (8)</text>
</g>
<!-- 140457415468816&#45;&gt;140457415469208 -->
<g id="edge33" class="edge">
<title>140457415468816&#45;&gt;140457415469208</title>
<path fill="none" stroke="#000000" d="M202.5,-1976.6724C202.5,-1968.8405 202.5,-1959.5893 202.5,-1951.4323"/>
<polygon fill="#000000" stroke="#000000" points="206.0001,-1951.2234 202.5,-1941.2234 199.0001,-1951.2235 206.0001,-1951.2234"/>
</g>
<!-- 140457415468592 -->
<g id="node35" class="node">
<title>140457415468592</title>
<polygon fill="#add8e6" stroke="#000000" points="301.5,-2012 247.5,-2012 247.5,-1977 301.5,-1977 301.5,-2012"/>
<text text-anchor="middle" x="274.5" y="-1984.4" font-family="Times,serif" font-size="12.00" fill="#000000"> (8)</text>
</g>
<!-- 140457415468592&#45;&gt;140457415469208 -->
<g id="edge34" class="edge">
<title>140457415468592&#45;&gt;140457415469208</title>
<path fill="none" stroke="#000000" d="M254.444,-1976.6724C244.3315,-1967.6836 232.1156,-1956.825 222.0716,-1947.897"/>
<polygon fill="#000000" stroke="#000000" points="224.3633,-1945.2512 214.5639,-1941.2234 219.7127,-1950.483 224.3633,-1945.2512"/>
</g>
<!-- 140457415469544 -->
<g id="node36" class="node">
<title>140457415469544</title>
<polygon fill="#add8e6" stroke="#000000" points="337,-1884 268,-1884 268,-1849 337,-1849 337,-1884"/>
<text text-anchor="middle" x="302.5" y="-1856.4" font-family="Times,serif" font-size="12.00" fill="#000000"> (8, 8, 3, 3)</text>
</g>
<!-- 140457415469544&#45;&gt;140457415468256 -->
<g id="edge35" class="edge">
<title>140457415469544&#45;&gt;140457415468256</title>
<path fill="none" stroke="#000000" d="M290.1404,-1848.9494C282.73,-1838.4266 273.3087,-1825.0484 265.7457,-1814.3089"/>
<polygon fill="#000000" stroke="#000000" points="268.5341,-1812.1897 259.9147,-1806.0288 262.8109,-1816.2202 268.5341,-1812.1897"/>
</g>
<!-- 140457415468872 -->
<g id="node37" class="node">
<title>140457415468872</title>
<polygon fill="#add8e6" stroke="#000000" points="403.5,-1813 349.5,-1813 349.5,-1778 403.5,-1778 403.5,-1813"/>
<text text-anchor="middle" x="376.5" y="-1785.4" font-family="Times,serif" font-size="12.00" fill="#000000"> (8)</text>
</g>
<!-- 140457415468872&#45;&gt;140457415470720 -->
<g id="edge36" class="edge">
<title>140457415468872&#45;&gt;140457415470720</title>
<path fill="none" stroke="#000000" d="M376.5,-1777.6724C376.5,-1769.8405 376.5,-1760.5893 376.5,-1752.4323"/>
<polygon fill="#000000" stroke="#000000" points="380.0001,-1752.2234 376.5,-1742.2234 373.0001,-1752.2235 380.0001,-1752.2234"/>
</g>
<!-- 140457415469376 -->
<g id="node38" class="node">
<title>140457415469376</title>
<polygon fill="#add8e6" stroke="#000000" points="475.5,-1813 421.5,-1813 421.5,-1778 475.5,-1778 475.5,-1813"/>
<text text-anchor="middle" x="448.5" y="-1785.4" font-family="Times,serif" font-size="12.00" fill="#000000"> (8)</text>
</g>
<!-- 140457415469376&#45;&gt;140457415470720 -->
<g id="edge37" class="edge">
<title>140457415469376&#45;&gt;140457415470720</title>
<path fill="none" stroke="#000000" d="M428.444,-1777.6724C418.3315,-1768.6836 406.1156,-1757.825 396.0716,-1748.897"/>
<polygon fill="#000000" stroke="#000000" points="398.3633,-1746.2512 388.5639,-1742.2234 393.7127,-1751.483 398.3633,-1746.2512"/>
</g>
<!-- 140457415467248 -->
<g id="node39" class="node">
<title>140457415467248</title>
<polygon fill="#add8e6" stroke="#000000" points="560,-1628 485,-1628 485,-1593 560,-1593 560,-1628"/>
<text text-anchor="middle" x="522.5" y="-1600.4" font-family="Times,serif" font-size="12.00" fill="#000000"> (16, 8, 3, 3)</text>
</g>
<!-- 140457415467248&#45;&gt;140457415467752 -->
<g id="edge38" class="edge">
<title>140457415467248&#45;&gt;140457415467752</title>
<path fill="none" stroke="#000000" d="M504.4551,-1592.9494C493.203,-1582.0057 478.7757,-1567.9736 467.527,-1557.0331"/>
<polygon fill="#000000" stroke="#000000" points="469.9343,-1554.492 460.3254,-1550.0288 465.0538,-1559.5101 469.9343,-1554.492"/>
</g>
<!-- 140457415470664 -->
<g id="node40" class="node">
<title>140457415470664</title>
<polygon fill="#add8e6" stroke="#000000" points="600.5,-1557 546.5,-1557 546.5,-1522 600.5,-1522 600.5,-1557"/>
<text text-anchor="middle" x="573.5" y="-1529.4" font-family="Times,serif" font-size="12.00" fill="#000000"> (16)</text>
</g>
<!-- 140457415470664&#45;&gt;140457476913472 -->
<g id="edge39" class="edge">
<title>140457415470664&#45;&gt;140457476913472</title>
<path fill="none" stroke="#000000" d="M573.5,-1521.6724C573.5,-1513.8405 573.5,-1504.5893 573.5,-1496.4323"/>
<polygon fill="#000000" stroke="#000000" points="577.0001,-1496.2234 573.5,-1486.2234 570.0001,-1496.2235 577.0001,-1496.2234"/>
</g>
<!-- 140457415467584 -->
<g id="node41" class="node">
<title>140457415467584</title>
<polygon fill="#add8e6" stroke="#000000" points="672.5,-1557 618.5,-1557 618.5,-1522 672.5,-1522 672.5,-1557"/>
<text text-anchor="middle" x="645.5" y="-1529.4" font-family="Times,serif" font-size="12.00" fill="#000000"> (16)</text>
</g>
<!-- 140457415467584&#45;&gt;140457476913472 -->
<g id="edge40" class="edge">
<title>140457415467584&#45;&gt;140457476913472</title>
<path fill="none" stroke="#000000" d="M625.444,-1521.6724C615.3315,-1512.6836 603.1156,-1501.825 593.0716,-1492.897"/>
<polygon fill="#000000" stroke="#000000" points="595.3633,-1490.2512 585.5639,-1486.2234 590.7127,-1495.483 595.3633,-1490.2512"/>
</g>
<!-- 140457476913752 -->
<g id="node42" class="node">
<title>140457476913752</title>
<polygon fill="#add8e6" stroke="#000000" points="720,-1429 639,-1429 639,-1394 720,-1394 720,-1429"/>
<text text-anchor="middle" x="679.5" y="-1401.4" font-family="Times,serif" font-size="12.00" fill="#000000"> (16, 16, 3, 3)</text>
</g>
<!-- 140457476913752&#45;&gt;140457476913024 -->
<g id="edge41" class="edge">
<title>140457476913752&#45;&gt;140457476913024</title>
<path fill="none" stroke="#000000" d="M666.3989,-1393.9494C658.5438,-1383.4266 648.5573,-1370.0484 640.5404,-1359.3089"/>
<polygon fill="#000000" stroke="#000000" points="643.1463,-1356.9487 634.3596,-1351.0288 637.5368,-1361.1361 643.1463,-1356.9487"/>
</g>
<!-- 140457476913080 -->
<g id="node43" class="node">
<title>140457476913080</title>
<polygon fill="#add8e6" stroke="#000000" points="777.5,-1358 723.5,-1358 723.5,-1323 777.5,-1323 777.5,-1358"/>
<text text-anchor="middle" x="750.5" y="-1330.4" font-family="Times,serif" font-size="12.00" fill="#000000"> (16)</text>
</g>
<!-- 140457476913080&#45;&gt;140457476912968 -->
<g id="edge42" class="edge">
<title>140457476913080&#45;&gt;140457476912968</title>
<path fill="none" stroke="#000000" d="M750.5,-1322.6724C750.5,-1314.8405 750.5,-1305.5893 750.5,-1297.4323"/>
<polygon fill="#000000" stroke="#000000" points="754.0001,-1297.2234 750.5,-1287.2234 747.0001,-1297.2235 754.0001,-1297.2234"/>
</g>
<!-- 140457476912688 -->
<g id="node44" class="node">
<title>140457476912688</title>
<polygon fill="#add8e6" stroke="#000000" points="849.5,-1358 795.5,-1358 795.5,-1323 849.5,-1323 849.5,-1358"/>
<text text-anchor="middle" x="822.5" y="-1330.4" font-family="Times,serif" font-size="12.00" fill="#000000"> (16)</text>
</g>
<!-- 140457476912688&#45;&gt;140457476912968 -->
<g id="edge43" class="edge">
<title>140457476912688&#45;&gt;140457476912968</title>
<path fill="none" stroke="#000000" d="M802.444,-1322.6724C792.3315,-1313.6836 780.1156,-1302.825 770.0716,-1293.897"/>
<polygon fill="#000000" stroke="#000000" points="772.3633,-1291.2512 762.5639,-1287.2234 767.7127,-1296.483 772.3633,-1291.2512"/>
</g>
<!-- 140457476913192 -->
<g id="node45" class="node">
<title>140457476913192</title>
<polygon fill="#add8e6" stroke="#000000" points="897,-1230 816,-1230 816,-1195 897,-1195 897,-1230"/>
<text text-anchor="middle" x="856.5" y="-1202.4" font-family="Times,serif" font-size="12.00" fill="#000000"> (16, 16, 3, 3)</text>
</g>
<!-- 140457476913192&#45;&gt;140457415119872 -->
<g id="edge44" class="edge">
<title>140457476913192&#45;&gt;140457415119872</title>
<path fill="none" stroke="#000000" d="M843.3989,-1194.9494C835.5438,-1184.4266 825.5573,-1171.0484 817.5404,-1160.3089"/>
<polygon fill="#000000" stroke="#000000" points="820.1463,-1157.9487 811.3596,-1152.0288 814.5368,-1162.1361 820.1463,-1157.9487"/>
</g>
<!-- 140457415121272 -->
<g id="node46" class="node">
<title>140457415121272</title>
<polygon fill="#add8e6" stroke="#000000" points="954.5,-1159 900.5,-1159 900.5,-1124 954.5,-1124 954.5,-1159"/>
<text text-anchor="middle" x="927.5" y="-1131.4" font-family="Times,serif" font-size="12.00" fill="#000000"> (16)</text>
</g>
<!-- 140457415121272&#45;&gt;140457415121776 -->
<g id="edge45" class="edge">
<title>140457415121272&#45;&gt;140457415121776</title>
<path fill="none" stroke="#000000" d="M927.5,-1123.6724C927.5,-1115.8405 927.5,-1106.5893 927.5,-1098.4323"/>
<polygon fill="#000000" stroke="#000000" points="931.0001,-1098.2234 927.5,-1088.2234 924.0001,-1098.2235 931.0001,-1098.2234"/>
</g>
<!-- 140457415122336 -->
<g id="node47" class="node">
<title>140457415122336</title>
<polygon fill="#add8e6" stroke="#000000" points="1026.5,-1159 972.5,-1159 972.5,-1124 1026.5,-1124 1026.5,-1159"/>
<text text-anchor="middle" x="999.5" y="-1131.4" font-family="Times,serif" font-size="12.00" fill="#000000"> (16)</text>
</g>
<!-- 140457415122336&#45;&gt;140457415121776 -->
<g id="edge46" class="edge">
<title>140457415122336&#45;&gt;140457415121776</title>
<path fill="none" stroke="#000000" d="M979.444,-1123.6724C969.3315,-1114.6836 957.1156,-1103.825 947.0716,-1094.897"/>
<polygon fill="#000000" stroke="#000000" points="949.3633,-1092.2512 939.5639,-1088.2234 944.7127,-1097.483 949.3633,-1092.2512"/>
</g>
<!-- 140457415350536 -->
<g id="node48" class="node">
<title>140457415350536</title>
<polygon fill="#add8e6" stroke="#000000" points="1074,-1031 993,-1031 993,-996 1074,-996 1074,-1031"/>
<text text-anchor="middle" x="1033.5" y="-1003.4" font-family="Times,serif" font-size="12.00" fill="#000000"> (16, 16, 3, 3)</text>
</g>
<!-- 140457415350536&#45;&gt;140457415351376 -->
<g id="edge47" class="edge">
<title>140457415350536&#45;&gt;140457415351376</title>
<path fill="none" stroke="#000000" d="M1020.3989,-995.9494C1012.5438,-985.4266 1002.5573,-972.0484 994.5404,-961.3089"/>
<polygon fill="#000000" stroke="#000000" points="997.1463,-958.9487 988.3596,-953.0288 991.5368,-963.1361 997.1463,-958.9487"/>
</g>
<!-- 140457415351208 -->
<g id="node49" class="node">
<title>140457415351208</title>
<polygon fill="#add8e6" stroke="#000000" points="1131.5,-960 1077.5,-960 1077.5,-925 1131.5,-925 1131.5,-960"/>
<text text-anchor="middle" x="1104.5" y="-932.4" font-family="Times,serif" font-size="12.00" fill="#000000"> (16)</text>
</g>
<!-- 140457415351208&#45;&gt;140457414784784 -->
<g id="edge48" class="edge">
<title>140457415351208&#45;&gt;140457414784784</title>
<path fill="none" stroke="#000000" d="M1104.5,-924.6724C1104.5,-916.8405 1104.5,-907.5893 1104.5,-899.4323"/>
<polygon fill="#000000" stroke="#000000" points="1108.0001,-899.2234 1104.5,-889.2234 1101.0001,-899.2235 1108.0001,-899.2234"/>
</g>
<!-- 140457415350368 -->
<g id="node50" class="node">
<title>140457415350368</title>
<polygon fill="#add8e6" stroke="#000000" points="1203.5,-960 1149.5,-960 1149.5,-925 1203.5,-925 1203.5,-960"/>
<text text-anchor="middle" x="1176.5" y="-932.4" font-family="Times,serif" font-size="12.00" fill="#000000"> (16)</text>
</g>
<!-- 140457415350368&#45;&gt;140457414784784 -->
<g id="edge49" class="edge">
<title>140457415350368&#45;&gt;140457414784784</title>
<path fill="none" stroke="#000000" d="M1156.444,-924.6724C1146.3315,-915.6836 1134.1156,-904.825 1124.0716,-895.897"/>
<polygon fill="#000000" stroke="#000000" points="1126.3633,-893.2512 1116.5639,-889.2234 1121.7127,-898.483 1126.3633,-893.2512"/>
</g>
<!-- 140457414783552 -->
<g id="node51" class="node">
<title>140457414783552</title>
<polygon fill="#add8e6" stroke="#000000" points="1251,-832 1170,-832 1170,-797 1251,-797 1251,-832"/>
<text text-anchor="middle" x="1210.5" y="-804.4" font-family="Times,serif" font-size="12.00" fill="#000000"> (16, 16, 3, 3)</text>
</g>
<!-- 140457414783552&#45;&gt;140457414785288 -->
<g id="edge50" class="edge">
<title>140457414783552&#45;&gt;140457414785288</title>
<path fill="none" stroke="#000000" d="M1197.3989,-796.9494C1189.5438,-786.4266 1179.5573,-773.0484 1171.5404,-762.3089"/>
<polygon fill="#000000" stroke="#000000" points="1174.1463,-759.9487 1165.3596,-754.0288 1168.5368,-764.1361 1174.1463,-759.9487"/>
</g>
<!-- 140457414783888 -->
<g id="node52" class="node">
<title>140457414783888</title>
<polygon fill="#add8e6" stroke="#000000" points="1308.5,-761 1254.5,-761 1254.5,-726 1308.5,-726 1308.5,-761"/>
<text text-anchor="middle" x="1281.5" y="-733.4" font-family="Times,serif" font-size="12.00" fill="#000000"> (16)</text>
</g>
<!-- 140457414783888&#45;&gt;140457414785512 -->
<g id="edge51" class="edge">
<title>140457414783888&#45;&gt;140457414785512</title>
<path fill="none" stroke="#000000" d="M1281.5,-725.6724C1281.5,-717.8405 1281.5,-708.5893 1281.5,-700.4323"/>
<polygon fill="#000000" stroke="#000000" points="1285.0001,-700.2234 1281.5,-690.2234 1278.0001,-700.2235 1285.0001,-700.2234"/>
</g>
<!-- 140457414783328 -->
<g id="node53" class="node">
<title>140457414783328</title>
<polygon fill="#add8e6" stroke="#000000" points="1380.5,-761 1326.5,-761 1326.5,-726 1380.5,-726 1380.5,-761"/>
<text text-anchor="middle" x="1353.5" y="-733.4" font-family="Times,serif" font-size="12.00" fill="#000000"> (16)</text>
</g>
<!-- 140457414783328&#45;&gt;140457414785512 -->
<g id="edge52" class="edge">
<title>140457414783328&#45;&gt;140457414785512</title>
<path fill="none" stroke="#000000" d="M1333.444,-725.6724C1323.3315,-716.6836 1311.1156,-705.825 1301.0716,-696.897"/>
<polygon fill="#000000" stroke="#000000" points="1303.3633,-694.2512 1293.5639,-690.2234 1298.7127,-699.483 1303.3633,-694.2512"/>
</g>
<!-- 140459910563600 -->
<g id="node54" class="node">
<title>140459910563600</title>
<polygon fill="#add8e6" stroke="#000000" points="1471,-576 1390,-576 1390,-541 1471,-541 1471,-576"/>
<text text-anchor="middle" x="1430.5" y="-548.4" font-family="Times,serif" font-size="12.00" fill="#000000"> (32, 16, 3, 3)</text>
</g>
<!-- 140459910563600&#45;&gt;140459910563488 -->
<g id="edge53" class="edge">
<title>140459910563600&#45;&gt;140459910563488</title>
<path fill="none" stroke="#000000" d="M1411.9607,-540.9494C1400.4004,-530.0057 1385.5777,-515.9736 1374.0209,-505.0331"/>
<polygon fill="#000000" stroke="#000000" points="1376.2903,-502.3619 1366.622,-498.0288 1371.4779,-507.4454 1376.2903,-502.3619"/>
</g>
<!-- 140459910563208 -->
<g id="node55" class="node">
<title>140459910563208</title>
<polygon fill="#add8e6" stroke="#000000" points="1506.5,-505 1452.5,-505 1452.5,-470 1506.5,-470 1506.5,-505"/>
<text text-anchor="middle" x="1479.5" y="-477.4" font-family="Times,serif" font-size="12.00" fill="#000000"> (32)</text>
</g>
<!-- 140459910563208&#45;&gt;140457415149440 -->
<g id="edge54" class="edge">
<title>140459910563208&#45;&gt;140457415149440</title>
<path fill="none" stroke="#000000" d="M1479.5,-469.6724C1479.5,-461.8405 1479.5,-452.5893 1479.5,-444.4323"/>
<polygon fill="#000000" stroke="#000000" points="1483.0001,-444.2234 1479.5,-434.2234 1476.0001,-444.2235 1483.0001,-444.2234"/>
</g>
<!-- 140459910563432 -->
<g id="node56" class="node">
<title>140459910563432</title>
<polygon fill="#add8e6" stroke="#000000" points="1578.5,-505 1524.5,-505 1524.5,-470 1578.5,-470 1578.5,-505"/>
<text text-anchor="middle" x="1551.5" y="-477.4" font-family="Times,serif" font-size="12.00" fill="#000000"> (32)</text>
</g>
<!-- 140459910563432&#45;&gt;140457415149440 -->
<g id="edge55" class="edge">
<title>140459910563432&#45;&gt;140457415149440</title>
<path fill="none" stroke="#000000" d="M1531.444,-469.6724C1521.3315,-460.6836 1509.1156,-449.825 1499.0716,-440.897"/>
<polygon fill="#000000" stroke="#000000" points="1501.3633,-438.2512 1491.5639,-434.2234 1496.7127,-443.483 1501.3633,-438.2512"/>
</g>
<!-- 140457414816656 -->
<g id="node57" class="node">
<title>140457414816656</title>
<polygon fill="#add8e6" stroke="#000000" points="1626,-377 1545,-377 1545,-342 1626,-342 1626,-377"/>
<text text-anchor="middle" x="1585.5" y="-349.4" font-family="Times,serif" font-size="12.00" fill="#000000"> (10, 32, 3, 3)</text>
</g>
<!-- 140457414816656&#45;&gt;140457414817328 -->
<g id="edge56" class="edge">
<title>140457414816656&#45;&gt;140457414817328</title>
<path fill="none" stroke="#000000" d="M1570.7365,-341.6724C1563.5874,-333.0396 1555.0102,-322.6821 1547.7927,-313.9666"/>
<polygon fill="#000000" stroke="#000000" points="1550.4542,-311.693 1541.3803,-306.2234 1545.0628,-316.1577 1550.4542,-311.693"/>
</g>
</g>
</svg>
