<?xml version="1.0" encoding="UTF-8" standalone="no"?>
<!DOCTYPE svg PUBLIC "-//W3C//DTD SVG 1.1//EN"
 "http://www.w3.org/Graphics/SVG/1.1/DTD/svg11.dtd">
<!-- Generated by graphviz version 2.40.1 (20161225.0304)
 -->
<!-- Title: %3 Pages: 1 -->
<svg width="364pt" height="864pt"
 viewBox="0.00 0.00 364.21 864.00" xmlns="http://www.w3.org/2000/svg" xmlns:xlink="http://www.w3.org/1999/xlink">
<g id="graph0" class="graph" transform="scale(.5673 .5673) rotate(0) translate(4 1519)">
<title>%3</title>
<polygon fill="#ffffff" stroke="transparent" points="-4,4 -4,-1519 638,-1519 638,4 -4,4"/>
<!-- 139648040888360 -->
<g id="node1" class="node">
<title>139648040888360</title>
<polygon fill="#caff70" stroke="#000000" points="603,-21 478,-21 478,0 603,0 603,-21"/>
<text text-anchor="middle" x="540.5" y="-7.4" font-family="Times,serif" font-size="12.00" fill="#000000">LogSoftmaxBackward</text>
</g>
<!-- 139648040890264 -->
<g id="node2" class="node">
<title>139648040890264</title>
<polygon fill="#d3d3d3" stroke="#000000" points="586,-78 495,-78 495,-57 586,-57 586,-78"/>
<text text-anchor="middle" x="540.5" y="-64.4" font-family="Times,serif" font-size="12.00" fill="#000000">ViewBackward</text>
</g>
<!-- 139648040890264&#45;&gt;139648040888360 -->
<g id="edge1" class="edge">
<title>139648040890264&#45;&gt;139648040888360</title>
<path fill="none" stroke="#000000" d="M540.5,-56.7787C540.5,-49.6134 540.5,-39.9517 540.5,-31.3097"/>
<polygon fill="#000000" stroke="#000000" points="544.0001,-31.1732 540.5,-21.1732 537.0001,-31.1732 544.0001,-31.1732"/>
</g>
<!-- 139648040889816 -->
<g id="node3" class="node">
<title>139648040889816</title>
<polygon fill="#d3d3d3" stroke="#000000" points="586,-135 495,-135 495,-114 586,-114 586,-135"/>
<text text-anchor="middle" x="540.5" y="-121.4" font-family="Times,serif" font-size="12.00" fill="#000000">ViewBackward</text>
</g>
<!-- 139648040889816&#45;&gt;139648040890264 -->
<g id="edge2" class="edge">
<title>139648040889816&#45;&gt;139648040890264</title>
<path fill="none" stroke="#000000" d="M540.5,-113.7787C540.5,-106.6134 540.5,-96.9517 540.5,-88.3097"/>
<polygon fill="#000000" stroke="#000000" points="544.0001,-88.1732 540.5,-78.1732 537.0001,-88.1732 544.0001,-88.1732"/>
</g>
<!-- 139648040888416 -->
<g id="node4" class="node">
<title>139648040888416</title>
<polygon fill="#d3d3d3" stroke="#000000" points="589.5,-192 491.5,-192 491.5,-171 589.5,-171 589.5,-192"/>
<text text-anchor="middle" x="540.5" y="-178.4" font-family="Times,serif" font-size="12.00" fill="#000000">MeanBackward1</text>
</g>
<!-- 139648040888416&#45;&gt;139648040889816 -->
<g id="edge3" class="edge">
<title>139648040888416&#45;&gt;139648040889816</title>
<path fill="none" stroke="#000000" d="M540.5,-170.7787C540.5,-163.6134 540.5,-153.9517 540.5,-145.3097"/>
<polygon fill="#000000" stroke="#000000" points="544.0001,-145.1732 540.5,-135.1732 537.0001,-145.1732 544.0001,-145.1732"/>
</g>
<!-- 139648040890320 -->
<g id="node5" class="node">
<title>139648040890320</title>
<polygon fill="#d3d3d3" stroke="#000000" points="586,-249 495,-249 495,-228 586,-228 586,-249"/>
<text text-anchor="middle" x="540.5" y="-235.4" font-family="Times,serif" font-size="12.00" fill="#000000">ViewBackward</text>
</g>
<!-- 139648040890320&#45;&gt;139648040888416 -->
<g id="edge4" class="edge">
<title>139648040890320&#45;&gt;139648040888416</title>
<path fill="none" stroke="#000000" d="M540.5,-227.7787C540.5,-220.6134 540.5,-210.9517 540.5,-202.3097"/>
<polygon fill="#000000" stroke="#000000" points="544.0001,-202.1732 540.5,-192.1732 537.0001,-202.1732 544.0001,-202.1732"/>
</g>
<!-- 139648040887968 -->
<g id="node6" class="node">
<title>139648040887968</title>
<polygon fill="#d3d3d3" stroke="#000000" points="619,-306 462,-306 462,-285 619,-285 619,-306"/>
<text text-anchor="middle" x="540.5" y="-292.4" font-family="Times,serif" font-size="12.00" fill="#000000">CudnnConvolutionBackward</text>
</g>
<!-- 139648040887968&#45;&gt;139648040890320 -->
<g id="edge5" class="edge">
<title>139648040887968&#45;&gt;139648040890320</title>
<path fill="none" stroke="#000000" d="M540.5,-284.7787C540.5,-277.6134 540.5,-267.9517 540.5,-259.3097"/>
<polygon fill="#000000" stroke="#000000" points="544.0001,-259.1732 540.5,-249.1732 537.0001,-259.1732 544.0001,-259.1732"/>
</g>
<!-- 139648040889368 -->
<g id="node7" class="node">
<title>139648040889368</title>
<polygon fill="#d3d3d3" stroke="#000000" points="534.5,-370 440.5,-370 440.5,-349 534.5,-349 534.5,-370"/>
<text text-anchor="middle" x="487.5" y="-356.4" font-family="Times,serif" font-size="12.00" fill="#000000">ReluBackward0</text>
</g>
<!-- 139648040889368&#45;&gt;139648040887968 -->
<g id="edge6" class="edge">
<title>139648040889368&#45;&gt;139648040887968</title>
<path fill="none" stroke="#000000" d="M496.2519,-348.9317C504.0304,-339.5388 515.5846,-325.5865 524.9356,-314.2947"/>
<polygon fill="#000000" stroke="#000000" points="527.8755,-316.2322 531.558,-306.2979 522.4841,-311.7675 527.8755,-316.2322"/>
</g>
<!-- 139648034267376 -->
<g id="node8" class="node">
<title>139648034267376</title>
<polygon fill="#d3d3d3" stroke="#000000" points="566,-434 409,-434 409,-413 566,-413 566,-434"/>
<text text-anchor="middle" x="487.5" y="-420.4" font-family="Times,serif" font-size="12.00" fill="#000000">CudnnConvolutionBackward</text>
</g>
<!-- 139648034267376&#45;&gt;139648040889368 -->
<g id="edge7" class="edge">
<title>139648034267376&#45;&gt;139648040889368</title>
<path fill="none" stroke="#000000" d="M487.5,-412.9317C487.5,-404.0913 487.5,-391.2122 487.5,-380.3135"/>
<polygon fill="#000000" stroke="#000000" points="491.0001,-380.2979 487.5,-370.2979 484.0001,-380.2979 491.0001,-380.2979"/>
</g>
<!-- 139648034267600 -->
<g id="node9" class="node">
<title>139648034267600</title>
<polygon fill="#d3d3d3" stroke="#000000" points="503.5,-498 323.5,-498 323.5,-477 503.5,-477 503.5,-498"/>
<text text-anchor="middle" x="413.5" y="-484.4" font-family="Times,serif" font-size="12.00" fill="#000000">MaxPool2DWithIndicesBackward</text>
</g>
<!-- 139648034267600&#45;&gt;139648034267376 -->
<g id="edge8" class="edge">
<title>139648034267600&#45;&gt;139648034267376</title>
<path fill="none" stroke="#000000" d="M425.7196,-476.9317C437.074,-467.1117 454.1906,-452.3081 467.53,-440.7713"/>
<polygon fill="#000000" stroke="#000000" points="469.9881,-443.2728 475.2623,-434.084 465.4091,-437.9783 469.9881,-443.2728"/>
</g>
<!-- 139648034267712 -->
<g id="node10" class="node">
<title>139648034267712</title>
<polygon fill="#d3d3d3" stroke="#000000" points="460.5,-562 366.5,-562 366.5,-541 460.5,-541 460.5,-562"/>
<text text-anchor="middle" x="413.5" y="-548.4" font-family="Times,serif" font-size="12.00" fill="#000000">ReluBackward0</text>
</g>
<!-- 139648034267712&#45;&gt;139648034267600 -->
<g id="edge9" class="edge">
<title>139648034267712&#45;&gt;139648034267600</title>
<path fill="none" stroke="#000000" d="M413.5,-540.9317C413.5,-532.0913 413.5,-519.2122 413.5,-508.3135"/>
<polygon fill="#000000" stroke="#000000" points="417.0001,-508.2979 413.5,-498.2979 410.0001,-508.2979 417.0001,-508.2979"/>
</g>
<!-- 139648034267824 -->
<g id="node11" class="node">
<title>139648034267824</title>
<polygon fill="#d3d3d3" stroke="#000000" points="492,-619 335,-619 335,-598 492,-598 492,-619"/>
<text text-anchor="middle" x="413.5" y="-605.4" font-family="Times,serif" font-size="12.00" fill="#000000">CudnnConvolutionBackward</text>
</g>
<!-- 139648034267824&#45;&gt;139648034267712 -->
<g id="edge10" class="edge">
<title>139648034267824&#45;&gt;139648034267712</title>
<path fill="none" stroke="#000000" d="M413.5,-597.7787C413.5,-590.6134 413.5,-580.9517 413.5,-572.3097"/>
<polygon fill="#000000" stroke="#000000" points="417.0001,-572.1732 413.5,-562.1732 410.0001,-572.1732 417.0001,-572.1732"/>
</g>
<!-- 139648034267936 -->
<g id="node12" class="node">
<title>139648034267936</title>
<polygon fill="#d3d3d3" stroke="#000000" points="407.5,-683 313.5,-683 313.5,-662 407.5,-662 407.5,-683"/>
<text text-anchor="middle" x="360.5" y="-669.4" font-family="Times,serif" font-size="12.00" fill="#000000">ReluBackward0</text>
</g>
<!-- 139648034267936&#45;&gt;139648034267824 -->
<g id="edge11" class="edge">
<title>139648034267936&#45;&gt;139648034267824</title>
<path fill="none" stroke="#000000" d="M369.2519,-661.9317C377.0304,-652.5388 388.5846,-638.5865 397.9356,-627.2947"/>
<polygon fill="#000000" stroke="#000000" points="400.8755,-629.2322 404.558,-619.2979 395.4841,-624.7675 400.8755,-629.2322"/>
</g>
<!-- 139648034268048 -->
<g id="node13" class="node">
<title>139648034268048</title>
<polygon fill="#d3d3d3" stroke="#000000" points="439,-747 282,-747 282,-726 439,-726 439,-747"/>
<text text-anchor="middle" x="360.5" y="-733.4" font-family="Times,serif" font-size="12.00" fill="#000000">CudnnConvolutionBackward</text>
</g>
<!-- 139648034268048&#45;&gt;139648034267936 -->
<g id="edge12" class="edge">
<title>139648034268048&#45;&gt;139648034267936</title>
<path fill="none" stroke="#000000" d="M360.5,-725.9317C360.5,-717.0913 360.5,-704.2122 360.5,-693.3135"/>
<polygon fill="#000000" stroke="#000000" points="364.0001,-693.2979 360.5,-683.2979 357.0001,-693.2979 364.0001,-693.2979"/>
</g>
<!-- 139648034268160 -->
<g id="node14" class="node">
<title>139648034268160</title>
<polygon fill="#d3d3d3" stroke="#000000" points="354.5,-811 260.5,-811 260.5,-790 354.5,-790 354.5,-811"/>
<text text-anchor="middle" x="307.5" y="-797.4" font-family="Times,serif" font-size="12.00" fill="#000000">ReluBackward0</text>
</g>
<!-- 139648034268160&#45;&gt;139648034268048 -->
<g id="edge13" class="edge">
<title>139648034268160&#45;&gt;139648034268048</title>
<path fill="none" stroke="#000000" d="M316.2519,-789.9317C324.0304,-780.5388 335.5846,-766.5865 344.9356,-755.2947"/>
<polygon fill="#000000" stroke="#000000" points="347.8755,-757.2322 351.558,-747.2979 342.4841,-752.7675 347.8755,-757.2322"/>
</g>
<!-- 139648034268272 -->
<g id="node15" class="node">
<title>139648034268272</title>
<polygon fill="#d3d3d3" stroke="#000000" points="386,-875 229,-875 229,-854 386,-854 386,-875"/>
<text text-anchor="middle" x="307.5" y="-861.4" font-family="Times,serif" font-size="12.00" fill="#000000">CudnnConvolutionBackward</text>
</g>
<!-- 139648034268272&#45;&gt;139648034268160 -->
<g id="edge14" class="edge">
<title>139648034268272&#45;&gt;139648034268160</title>
<path fill="none" stroke="#000000" d="M307.5,-853.9317C307.5,-845.0913 307.5,-832.2122 307.5,-821.3135"/>
<polygon fill="#000000" stroke="#000000" points="311.0001,-821.2979 307.5,-811.2979 304.0001,-821.2979 311.0001,-821.2979"/>
</g>
<!-- 139648034268384 -->
<g id="node16" class="node">
<title>139648034268384</title>
<polygon fill="#d3d3d3" stroke="#000000" points="301.5,-939 207.5,-939 207.5,-918 301.5,-918 301.5,-939"/>
<text text-anchor="middle" x="254.5" y="-925.4" font-family="Times,serif" font-size="12.00" fill="#000000">ReluBackward0</text>
</g>
<!-- 139648034268384&#45;&gt;139648034268272 -->
<g id="edge15" class="edge">
<title>139648034268384&#45;&gt;139648034268272</title>
<path fill="none" stroke="#000000" d="M263.2519,-917.9317C271.0304,-908.5388 282.5846,-894.5865 291.9356,-883.2947"/>
<polygon fill="#000000" stroke="#000000" points="294.8755,-885.2322 298.558,-875.2979 289.4841,-880.7675 294.8755,-885.2322"/>
</g>
<!-- 139648034268496 -->
<g id="node17" class="node">
<title>139648034268496</title>
<polygon fill="#d3d3d3" stroke="#000000" points="333,-1003 176,-1003 176,-982 333,-982 333,-1003"/>
<text text-anchor="middle" x="254.5" y="-989.4" font-family="Times,serif" font-size="12.00" fill="#000000">CudnnConvolutionBackward</text>
</g>
<!-- 139648034268496&#45;&gt;139648034268384 -->
<g id="edge16" class="edge">
<title>139648034268496&#45;&gt;139648034268384</title>
<path fill="none" stroke="#000000" d="M254.5,-981.9317C254.5,-973.0913 254.5,-960.2122 254.5,-949.3135"/>
<polygon fill="#000000" stroke="#000000" points="258.0001,-949.2979 254.5,-939.2979 251.0001,-949.2979 258.0001,-949.2979"/>
</g>
<!-- 139648034268608 -->
<g id="node18" class="node">
<title>139648034268608</title>
<polygon fill="#d3d3d3" stroke="#000000" points="248.5,-1067 154.5,-1067 154.5,-1046 248.5,-1046 248.5,-1067"/>
<text text-anchor="middle" x="201.5" y="-1053.4" font-family="Times,serif" font-size="12.00" fill="#000000">ReluBackward0</text>
</g>
<!-- 139648034268608&#45;&gt;139648034268496 -->
<g id="edge17" class="edge">
<title>139648034268608&#45;&gt;139648034268496</title>
<path fill="none" stroke="#000000" d="M210.2519,-1045.9317C218.0304,-1036.5388 229.5846,-1022.5865 238.9356,-1011.2947"/>
<polygon fill="#000000" stroke="#000000" points="241.8755,-1013.2322 245.558,-1003.2979 236.4841,-1008.7675 241.8755,-1013.2322"/>
</g>
<!-- 139648034268720 -->
<g id="node19" class="node">
<title>139648034268720</title>
<polygon fill="#d3d3d3" stroke="#000000" points="280,-1131 123,-1131 123,-1110 280,-1110 280,-1131"/>
<text text-anchor="middle" x="201.5" y="-1117.4" font-family="Times,serif" font-size="12.00" fill="#000000">CudnnConvolutionBackward</text>
</g>
<!-- 139648034268720&#45;&gt;139648034268608 -->
<g id="edge18" class="edge">
<title>139648034268720&#45;&gt;139648034268608</title>
<path fill="none" stroke="#000000" d="M201.5,-1109.9317C201.5,-1101.0913 201.5,-1088.2122 201.5,-1077.3135"/>
<polygon fill="#000000" stroke="#000000" points="205.0001,-1077.2979 201.5,-1067.2979 198.0001,-1077.2979 205.0001,-1077.2979"/>
</g>
<!-- 139648034268832 -->
<g id="node20" class="node">
<title>139648034268832</title>
<polygon fill="#d3d3d3" stroke="#000000" points="218.5,-1195 38.5,-1195 38.5,-1174 218.5,-1174 218.5,-1195"/>
<text text-anchor="middle" x="128.5" y="-1181.4" font-family="Times,serif" font-size="12.00" fill="#000000">MaxPool2DWithIndicesBackward</text>
</g>
<!-- 139648034268832&#45;&gt;139648034268720 -->
<g id="edge19" class="edge">
<title>139648034268832&#45;&gt;139648034268720</title>
<path fill="none" stroke="#000000" d="M140.5545,-1173.9317C151.6884,-1164.1705 168.4387,-1149.4852 181.5631,-1137.9789"/>
<polygon fill="#000000" stroke="#000000" points="183.9716,-1140.5221 189.1836,-1131.2979 179.3569,-1135.2585 183.9716,-1140.5221"/>
</g>
<!-- 139648034268944 -->
<g id="node21" class="node">
<title>139648034268944</title>
<polygon fill="#d3d3d3" stroke="#000000" points="175.5,-1259 81.5,-1259 81.5,-1238 175.5,-1238 175.5,-1259"/>
<text text-anchor="middle" x="128.5" y="-1245.4" font-family="Times,serif" font-size="12.00" fill="#000000">ReluBackward0</text>
</g>
<!-- 139648034268944&#45;&gt;139648034268832 -->
<g id="edge20" class="edge">
<title>139648034268944&#45;&gt;139648034268832</title>
<path fill="none" stroke="#000000" d="M128.5,-1237.9317C128.5,-1229.0913 128.5,-1216.2122 128.5,-1205.3135"/>
<polygon fill="#000000" stroke="#000000" points="132.0001,-1205.2979 128.5,-1195.2979 125.0001,-1205.2979 132.0001,-1205.2979"/>
</g>
<!-- 139648034269056 -->
<g id="node22" class="node">
<title>139648034269056</title>
<polygon fill="#d3d3d3" stroke="#000000" points="207,-1316 50,-1316 50,-1295 207,-1295 207,-1316"/>
<text text-anchor="middle" x="128.5" y="-1302.4" font-family="Times,serif" font-size="12.00" fill="#000000">CudnnConvolutionBackward</text>
</g>
<!-- 139648034269056&#45;&gt;139648034268944 -->
<g id="edge21" class="edge">
<title>139648034269056&#45;&gt;139648034268944</title>
<path fill="none" stroke="#000000" d="M128.5,-1294.7787C128.5,-1287.6134 128.5,-1277.9517 128.5,-1269.3097"/>
<polygon fill="#000000" stroke="#000000" points="132.0001,-1269.1732 128.5,-1259.1732 125.0001,-1269.1732 132.0001,-1269.1732"/>
</g>
<!-- 139648034269168 -->
<g id="node23" class="node">
<title>139648034269168</title>
<polygon fill="#d3d3d3" stroke="#000000" points="125.5,-1380 31.5,-1380 31.5,-1359 125.5,-1359 125.5,-1380"/>
<text text-anchor="middle" x="78.5" y="-1366.4" font-family="Times,serif" font-size="12.00" fill="#000000">ReluBackward0</text>
</g>
<!-- 139648034269168&#45;&gt;139648034269056 -->
<g id="edge22" class="edge">
<title>139648034269168&#45;&gt;139648034269056</title>
<path fill="none" stroke="#000000" d="M86.7565,-1358.9317C94.0947,-1349.5388 104.9949,-1335.5865 113.8166,-1324.2947"/>
<polygon fill="#000000" stroke="#000000" points="116.6657,-1326.3329 120.0641,-1316.2979 111.1496,-1322.0234 116.6657,-1326.3329"/>
</g>
<!-- 139648034269280 -->
<g id="node24" class="node">
<title>139648034269280</title>
<polygon fill="#d3d3d3" stroke="#000000" points="157,-1444 0,-1444 0,-1423 157,-1423 157,-1444"/>
<text text-anchor="middle" x="78.5" y="-1430.4" font-family="Times,serif" font-size="12.00" fill="#000000">CudnnConvolutionBackward</text>
</g>
<!-- 139648034269280&#45;&gt;139648034269168 -->
<g id="edge23" class="edge">
<title>139648034269280&#45;&gt;139648034269168</title>
<path fill="none" stroke="#000000" d="M78.5,-1422.9317C78.5,-1414.0913 78.5,-1401.2122 78.5,-1390.3135"/>
<polygon fill="#000000" stroke="#000000" points="82.0001,-1390.2979 78.5,-1380.2979 75.0001,-1390.2979 82.0001,-1390.2979"/>
</g>
<!-- 139648034267544 -->
<g id="node25" class="node">
<title>139648034267544</title>
<polygon fill="#add8e6" stroke="#000000" points="113,-1515 44,-1515 44,-1480 113,-1480 113,-1515"/>
<text text-anchor="middle" x="78.5" y="-1487.4" font-family="Times,serif" font-size="12.00" fill="#000000"> (8, 1, 3, 3)</text>
</g>
<!-- 139648034267544&#45;&gt;139648034269280 -->
<g id="edge24" class="edge">
<title>139648034267544&#45;&gt;139648034269280</title>
<path fill="none" stroke="#000000" d="M78.5,-1479.6724C78.5,-1471.8405 78.5,-1462.5893 78.5,-1454.4323"/>
<polygon fill="#000000" stroke="#000000" points="82.0001,-1454.2234 78.5,-1444.2234 75.0001,-1454.2235 82.0001,-1454.2234"/>
</g>
<!-- 139648034267320 -->
<g id="node26" class="node">
<title>139648034267320</title>
<polygon fill="#add8e6" stroke="#000000" points="213,-1387 144,-1387 144,-1352 213,-1352 213,-1387"/>
<text text-anchor="middle" x="178.5" y="-1359.4" font-family="Times,serif" font-size="12.00" fill="#000000"> (8, 8, 3, 3)</text>
</g>
<!-- 139648034267320&#45;&gt;139648034269056 -->
<g id="edge25" class="edge">
<title>139648034267320&#45;&gt;139648034269056</title>
<path fill="none" stroke="#000000" d="M164.5722,-1351.6724C157.8973,-1343.1286 149.9027,-1332.8955 143.138,-1324.2367"/>
<polygon fill="#000000" stroke="#000000" points="145.7923,-1321.9489 136.8777,-1316.2234 140.2761,-1326.2585 145.7923,-1321.9489"/>
</g>
<!-- 139648040889592 -->
<g id="node27" class="node">
<title>139648040889592</title>
<polygon fill="#add8e6" stroke="#000000" points="312,-1202 237,-1202 237,-1167 312,-1167 312,-1202"/>
<text text-anchor="middle" x="274.5" y="-1174.4" font-family="Times,serif" font-size="12.00" fill="#000000"> (16, 8, 3, 3)</text>
</g>
<!-- 139648040889592&#45;&gt;139648034268720 -->
<g id="edge26" class="edge">
<title>139648040889592&#45;&gt;139648034268720</title>
<path fill="none" stroke="#000000" d="M254.1654,-1166.6724C243.9125,-1157.6836 231.5269,-1146.825 221.3435,-1137.897"/>
<polygon fill="#000000" stroke="#000000" points="223.5581,-1135.184 213.7314,-1131.2234 218.9435,-1140.4476 223.5581,-1135.184"/>
</g>
<!-- 139648040888304 -->
<g id="node28" class="node">
<title>139648040888304</title>
<polygon fill="#add8e6" stroke="#000000" points="348,-1074 267,-1074 267,-1039 348,-1039 348,-1074"/>
<text text-anchor="middle" x="307.5" y="-1046.4" font-family="Times,serif" font-size="12.00" fill="#000000"> (16, 16, 3, 3)</text>
</g>
<!-- 139648040888304&#45;&gt;139648034268496 -->
<g id="edge27" class="edge">
<title>139648040888304&#45;&gt;139648034268496</title>
<path fill="none" stroke="#000000" d="M292.7365,-1038.6724C285.5874,-1030.0396 277.0102,-1019.6821 269.7927,-1010.9666"/>
<polygon fill="#000000" stroke="#000000" points="272.4542,-1008.693 263.3803,-1003.2234 267.0628,-1013.1577 272.4542,-1008.693"/>
</g>
<!-- 139648040889704 -->
<g id="node29" class="node">
<title>139648040889704</title>
<polygon fill="#add8e6" stroke="#000000" points="401,-946 320,-946 320,-911 401,-911 401,-946"/>
<text text-anchor="middle" x="360.5" y="-918.4" font-family="Times,serif" font-size="12.00" fill="#000000"> (16, 16, 3, 3)</text>
</g>
<!-- 139648040889704&#45;&gt;139648034268272 -->
<g id="edge28" class="edge">
<title>139648040889704&#45;&gt;139648034268272</title>
<path fill="none" stroke="#000000" d="M345.7365,-910.6724C338.5874,-902.0396 330.0102,-891.6821 322.7927,-882.9666"/>
<polygon fill="#000000" stroke="#000000" points="325.4542,-880.693 316.3803,-875.2234 320.0628,-885.1577 325.4542,-880.693"/>
</g>
<!-- 139648040889648 -->
<g id="node30" class="node">
<title>139648040889648</title>
<polygon fill="#add8e6" stroke="#000000" points="454,-818 373,-818 373,-783 454,-783 454,-818"/>
<text text-anchor="middle" x="413.5" y="-790.4" font-family="Times,serif" font-size="12.00" fill="#000000"> (16, 16, 3, 3)</text>
</g>
<!-- 139648040889648&#45;&gt;139648034268048 -->
<g id="edge29" class="edge">
<title>139648040889648&#45;&gt;139648034268048</title>
<path fill="none" stroke="#000000" d="M398.7365,-782.6724C391.5874,-774.0396 383.0102,-763.6821 375.7927,-754.9666"/>
<polygon fill="#000000" stroke="#000000" points="378.4542,-752.693 369.3803,-747.2234 373.0628,-757.1577 378.4542,-752.693"/>
</g>
<!-- 139648040888752 -->
<g id="node31" class="node">
<title>139648040888752</title>
<polygon fill="#add8e6" stroke="#000000" points="507,-690 426,-690 426,-655 507,-655 507,-690"/>
<text text-anchor="middle" x="466.5" y="-662.4" font-family="Times,serif" font-size="12.00" fill="#000000"> (16, 16, 3, 3)</text>
</g>
<!-- 139648040888752&#45;&gt;139648034267824 -->
<g id="edge30" class="edge">
<title>139648040888752&#45;&gt;139648034267824</title>
<path fill="none" stroke="#000000" d="M451.7365,-654.6724C444.5874,-646.0396 436.0102,-635.6821 428.7927,-626.9666"/>
<polygon fill="#000000" stroke="#000000" points="431.4542,-624.693 422.3803,-619.2234 426.0628,-629.1577 431.4542,-624.693"/>
</g>
<!-- 139648040888080 -->
<g id="node32" class="node">
<title>139648040888080</title>
<polygon fill="#add8e6" stroke="#000000" points="603,-505 522,-505 522,-470 603,-470 603,-505"/>
<text text-anchor="middle" x="562.5" y="-477.4" font-family="Times,serif" font-size="12.00" fill="#000000"> (32, 16, 3, 3)</text>
</g>
<!-- 139648040888080&#45;&gt;139648034267376 -->
<g id="edge31" class="edge">
<title>139648040888080&#45;&gt;139648034267376</title>
<path fill="none" stroke="#000000" d="M541.6083,-469.6724C531.0745,-460.6836 518.3496,-449.825 507.8871,-440.897"/>
<polygon fill="#000000" stroke="#000000" points="509.9453,-438.0522 500.0665,-434.2234 505.4015,-443.3771 509.9453,-438.0522"/>
</g>
<!-- 139648040889872 -->
<g id="node33" class="node">
<title>139648040889872</title>
<polygon fill="#add8e6" stroke="#000000" points="634,-377 553,-377 553,-342 634,-342 634,-377"/>
<text text-anchor="middle" x="593.5" y="-349.4" font-family="Times,serif" font-size="12.00" fill="#000000"> (10, 32, 3, 3)</text>
</g>
<!-- 139648040889872&#45;&gt;139648040887968 -->
<g id="edge32" class="edge">
<title>139648040889872&#45;&gt;139648040887968</title>
<path fill="none" stroke="#000000" d="M578.7365,-341.6724C571.5874,-333.0396 563.0102,-322.6821 555.7927,-313.9666"/>
<polygon fill="#000000" stroke="#000000" points="558.4542,-311.693 549.3803,-306.2234 553.0628,-316.1577 558.4542,-311.693"/>
</g>
</g>
</svg>
